<svg width="63" height="50" viewBox="0 0 63 50" fill="none" xmlns="http://www.w3.org/2000/svg">
<g clip-path="url(#clip0)">
<path d="M9.375 21.875C12.8223 21.875 15.625 19.0723 15.625 15.625C15.625 12.1777 12.8223 9.375 9.375 9.375C5.92773 9.375 3.125 12.1777 3.125 15.625C3.125 19.0723 5.92773 21.875 9.375 21.875ZM53.125 21.875C56.5723 21.875 59.375 19.0723 59.375 15.625C59.375 12.1777 56.5723 9.375 53.125 9.375C49.6777 9.375 46.875 12.1777 46.875 15.625C46.875 19.0723 49.6777 21.875 53.125 21.875ZM56.25 25H50C48.2812 25 46.7285 25.6934 45.5957 26.8164C49.5312 28.9746 52.3242 32.8711 52.9297 37.5H59.375C61.1035 37.5 62.5 36.1035 62.5 34.375V31.25C62.5 27.8027 59.6973 25 56.25 25ZM31.25 25C37.2949 25 42.1875 20.1074 42.1875 14.0625C42.1875 8.01758 37.2949 3.125 31.25 3.125C25.2051 3.125 20.3125 8.01758 20.3125 14.0625C20.3125 20.1074 25.2051 25 31.25 25ZM38.75 28.125H37.9395C35.9082 29.1016 33.6523 29.6875 31.25 29.6875C28.8477 29.6875 26.6016 29.1016 24.5605 28.125H23.75C17.5391 28.125 12.5 33.1641 12.5 39.375V42.1875C12.5 44.7754 14.5996 46.875 17.1875 46.875H45.3125C47.9004 46.875 50 44.7754 50 42.1875V39.375C50 33.1641 44.9609 28.125 38.75 28.125ZM16.9043 26.8164C15.7715 25.6934 14.2188 25 12.5 25H6.25C2.80273 25 0 27.8027 0 31.25V34.375C0 36.1035 1.39648 37.5 3.125 37.5H9.56055C10.1758 32.8711 12.9688 28.9746 16.9043 26.8164Z" fill="#070707"/>
</g>
<defs>
<clipPath id="clip0">
<rect width="62.5" height="50" fill="white"/>
</clipPath>
</defs>
</svg>
