<svg width="20" height="18" viewBox="0 0 20 18" fill="none" xmlns="http://www.w3.org/2000/svg">
<path fill-rule="evenodd" clip-rule="evenodd" d="M0.199951 2C0.199951 1.6287 0.347451 1.2726 0.610002 1.01005C0.872553 0.747498 1.22865 0.599998 1.59995 0.599998H18.4C18.7713 0.599998 19.1274 0.747498 19.3899 1.01005C19.6525 1.2726 19.8 1.6287 19.8 2C19.8 2.3713 19.6525 2.7274 19.3899 2.98995C19.1274 3.2525 18.7713 3.4 18.4 3.4H1.59995C1.22865 3.4 0.872553 3.2525 0.610002 2.98995C0.347451 2.7274 0.199951 2.3713 0.199951 2Z" fill="white"/>
<path fill-rule="evenodd" clip-rule="evenodd" d="M0.199951 9C0.199951 8.6287 0.347451 8.2726 0.610002 8.01005C0.872553 7.7475 1.22865 7.6 1.59995 7.6H18.4C18.7713 7.6 19.1274 7.7475 19.3899 8.01005C19.6525 8.2726 19.8 8.6287 19.8 9C19.8 9.3713 19.6525 9.7274 19.3899 9.98995C19.1274 10.2525 18.7713 10.4 18.4 10.4H1.59995C1.22865 10.4 0.872553 10.2525 0.610002 9.98995C0.347451 9.7274 0.199951 9.3713 0.199951 9Z" fill="white"/>
<path fill-rule="evenodd" clip-rule="evenodd" d="M0.199951 16C0.199951 15.6287 0.347451 15.2726 0.610002 15.01C0.872552 14.7475 1.22865 14.6 1.59995 14.6H9.99995C10.3713 14.6 10.7273 14.7475 10.9899 15.01C11.2524 15.2726 11.4 15.6287 11.4 16C11.4 16.3713 11.2524 16.7274 10.9899 16.9899C10.7273 17.2525 10.3713 17.4 9.99995 17.4H1.59995C1.22865 17.4 0.872552 17.2525 0.610002 16.9899C0.347451 16.7274 0.199951 16.3713 0.199951 16Z" fill="white"/>
</svg>
