<svg width="25" height="24" viewBox="0 0 25 24" fill="none" xmlns="http://www.w3.org/2000/svg">
<path d="M16.6552 13.53C16.3598 13.2138 16.0281 12.9329 15.6667 12.693C17.1239 11.5785 18.1452 9.99829 18.5564 8.222C18.5873 8.09346 18.5922 7.96013 18.5707 7.82973C18.5492 7.69933 18.5018 7.57444 18.4312 7.46227C18.3606 7.3501 18.2683 7.25287 18.1595 7.17622C18.0508 7.09956 17.9277 7.04499 17.7975 7.01565C17.6673 6.98632 17.5325 6.98281 17.4009 7.00532C17.2693 7.02783 17.1435 7.07592 17.0308 7.1468C16.9181 7.21769 16.8207 7.30997 16.7443 7.41831C16.6679 7.52665 16.6139 7.6489 16.5855 7.778C16.3942 8.60905 16.022 9.38881 15.4948 10.0629C14.9676 10.737 14.2981 11.2892 13.533 11.681V8.002C13.5266 7.92855 13.5117 7.85607 13.4885 7.786C13.4817 7.72811 13.4698 7.6709 13.4532 7.615C13.4101 7.52366 13.3532 7.43935 13.2844 7.365C13.2662 7.345 13.2571 7.317 13.2379 7.297C13.1638 7.2294 13.08 7.17311 12.9892 7.13C12.9629 7.116 12.9437 7.093 12.9164 7.082C12.8392 7.0564 12.7591 7.03995 12.6779 7.033C12.6276 7.01852 12.5763 7.00815 12.5243 7.002L11.8632 7H11.8602C11.6234 6.99834 11.3936 7.07941 11.2113 7.22893C11.029 7.37844 10.9058 7.58682 10.8636 7.81734C10.8213 8.04787 10.8626 8.28576 10.9802 8.48911C11.0978 8.69247 11.2842 8.84824 11.5064 8.929V13.819C9.90471 12.1741 8.84404 10.0879 8.46408 7.835C8.41931 7.5735 8.27138 7.3403 8.05283 7.18671C7.83427 7.03311 7.563 6.97171 7.29868 7.016C7.03437 7.06029 6.79866 7.20665 6.64342 7.42288C6.48818 7.63911 6.42611 7.9075 6.47088 8.169C7.0615 11.6517 9.02441 14.7604 11.9289 16.813C11.9704 16.8374 12.0137 16.8588 12.0583 16.877C12.0935 16.8973 12.13 16.9153 12.1675 16.931C12.2801 16.9756 12.4 16.9997 12.5212 17.002C12.67 17.0002 12.8165 16.9653 12.9498 16.9C12.9599 16.895 12.971 16.898 12.9811 16.893C13.0705 16.8467 13.1523 16.7874 13.2237 16.717C13.2389 16.703 13.248 16.687 13.2621 16.672C13.3274 16.6012 13.3818 16.5213 13.4238 16.435C13.4378 16.4066 13.4502 16.3776 13.4612 16.348C13.5056 16.2378 13.5296 16.1206 13.532 16.002V13.876C14.1587 14.0577 14.7235 14.4052 15.1654 14.881L16.8301 16.678C17.0113 16.8735 17.2636 16.9897 17.5314 17.0011C17.7992 17.0126 18.0607 16.9183 18.2583 16.739C18.4558 16.5597 18.5733 16.3101 18.5849 16.0451C18.5965 15.7801 18.5011 15.5215 18.3199 15.326L16.6552 13.53ZM15.977 1H9.77503C3.55183 1 1.75269 2.778 1.75269 8.927V15.063C1.75269 21.22 3.5498 23 9.76492 23H15.9669C22.1901 23 23.9892 21.222 23.9892 15.073V8.937C23.9892 2.78 22.1921 1 15.977 1ZM21.9677 15.073C21.9677 20.113 21.0702 21 15.9659 21H9.76593C4.67073 21 3.77419 20.112 3.77419 15.062V8.928C3.77419 3.887 4.67174 3 9.77604 3H15.977C21.0712 3 21.9677 3.888 21.9677 8.938V15.073Z" fill="#F1F0EA"/>
</svg>
