<svg width="25" height="24" viewBox="0 0 25 24" fill="none" xmlns="http://www.w3.org/2000/svg">
<path fill-rule="evenodd" clip-rule="evenodd" d="M7.54526 1.066C8.73087 1.012 9.10889 1 12.129 1C15.1491 1 15.5272 1.013 16.7118 1.066C17.8964 1.119 18.705 1.306 19.4125 1.577C20.1534 1.854 20.8255 2.287 21.3814 2.847C21.9475 3.396 22.3841 4.06 22.6631 4.794C22.938 5.494 23.126 6.294 23.1806 7.464C23.2352 8.639 23.2473 9.013 23.2473 12C23.2473 14.988 23.2342 15.362 23.1806 16.535C23.127 17.705 22.938 18.505 22.6631 19.205C22.3841 19.9391 21.9467 20.6042 21.3814 21.154C20.8255 21.714 20.1534 22.146 19.4125 22.422C18.705 22.694 17.8964 22.88 16.7138 22.934C15.5272 22.988 15.1491 23 12.129 23C9.10889 23 8.73087 22.987 7.54526 22.934C6.36268 22.881 5.55408 22.694 4.84655 22.422C4.10458 22.146 3.43232 21.7133 2.87659 21.154C2.31095 20.6047 1.87323 19.9399 1.59395 19.206C1.32003 18.506 1.13203 17.706 1.07745 16.536C1.02287 15.361 1.01074 14.987 1.01074 12C1.01074 9.012 1.02388 8.638 1.07745 7.466C1.13102 6.294 1.32003 5.494 1.59395 4.794C1.87364 4.06008 2.3117 3.39531 2.8776 2.846C3.43255 2.2865 4.10412 1.85344 4.84554 1.577C5.55306 1.306 6.36167 1.12 7.54425 1.066H7.54526ZM16.6218 3.046C15.4493 2.993 15.0976 2.982 12.129 2.982C9.16044 2.982 8.8087 2.993 7.63623 3.046C6.55169 3.095 5.96343 3.274 5.57126 3.425C5.05274 3.625 4.6818 3.862 4.29266 4.247C3.92378 4.60205 3.63989 5.03428 3.46182 5.512C3.30919 5.9 3.12827 6.482 3.07874 7.555C3.02517 8.715 3.01405 9.063 3.01405 12C3.01405 14.937 3.02517 15.285 3.07874 16.445C3.12827 17.518 3.30919 18.1 3.46182 18.488C3.63971 18.965 3.92373 19.398 4.29266 19.753C4.65147 20.118 5.08913 20.399 5.57126 20.575C5.96343 20.726 6.55169 20.905 7.63623 20.954C8.8087 21.007 9.15943 21.018 12.129 21.018C15.0986 21.018 15.4493 21.007 16.6218 20.954C17.7064 20.905 18.2946 20.726 18.6868 20.575C19.2053 20.375 19.5762 20.138 19.9654 19.753C20.3343 19.398 20.6183 18.965 20.7962 18.488C20.9488 18.1 21.1298 17.518 21.1793 16.445C21.2329 15.285 21.244 14.937 21.244 12C21.244 9.063 21.2329 8.715 21.1793 7.555C21.1298 6.482 20.9488 5.9 20.7962 5.512C20.5941 4.999 20.3545 4.632 19.9654 4.247C19.6065 3.88207 19.1696 3.60121 18.6868 3.425C18.2946 3.274 17.7064 3.095 16.6218 3.046ZM10.7089 15.391C11.502 15.7176 12.3851 15.7617 13.2074 15.5157C14.0297 15.2697 14.7402 14.7489 15.2175 14.0422C15.6948 13.3356 15.9093 12.4869 15.8244 11.6411C15.7395 10.7953 15.3604 10.005 14.7519 9.405C14.364 9.02148 13.895 8.72781 13.3786 8.54515C12.8623 8.36248 12.3114 8.29536 11.7656 8.34862C11.2199 8.40187 10.6929 8.57418 10.2225 8.85313C9.75219 9.13208 9.3502 9.51074 9.04552 9.96185C8.74084 10.413 8.54104 10.9253 8.46051 11.462C8.37998 11.9986 8.42072 12.5463 8.5798 13.0655C8.73888 13.5847 9.01235 14.0626 9.3805 14.4647C9.74866 14.8668 10.2023 15.1832 10.7089 15.391ZM8.08803 8.002C8.6187 7.47697 9.2487 7.0605 9.94205 6.77636C10.6354 6.49222 11.3785 6.34597 12.129 6.34597C12.8795 6.34597 13.6226 6.49222 14.316 6.77636C15.0093 7.0605 15.6393 7.47697 16.17 8.002C16.7007 8.52702 17.1216 9.15032 17.4088 9.8363C17.696 10.5223 17.8438 11.2575 17.8438 12C17.8438 12.7425 17.696 13.4777 17.4088 14.1637C17.1216 14.8497 16.7007 15.473 16.17 15.998C15.0983 17.0583 13.6447 17.654 12.129 17.654C10.6134 17.654 9.15977 17.0583 8.08803 15.998C7.01629 14.9377 6.4142 13.4995 6.4142 12C6.4142 10.5005 7.01629 9.06234 8.08803 8.002ZM19.1113 7.188C19.2428 7.06527 19.3481 6.91768 19.4209 6.75397C19.4937 6.59027 19.5326 6.41377 19.5352 6.23493C19.5379 6.05609 19.5042 5.87855 19.4362 5.71281C19.3683 5.54707 19.2674 5.39651 19.1396 5.27004C19.0117 5.14357 18.8595 5.04376 18.692 4.97652C18.5245 4.90928 18.3451 4.87598 18.1643 4.87858C17.9835 4.88119 17.8051 4.91965 17.6397 4.9917C17.4742 5.06374 17.325 5.1679 17.201 5.298C16.9597 5.55103 16.8276 5.88712 16.8328 6.23493C16.8379 6.58274 16.9798 6.91488 17.2284 7.16084C17.477 7.40681 17.8127 7.54723 18.1643 7.5523C18.5158 7.55737 18.8555 7.42669 19.1113 7.188Z" fill="#F1F0EA"/>
</svg>
